<?xml version="1.0" encoding="UTF-8"?>
<svg width="220px" height="220px" viewBox="0 0 220 220" version="1.1" xmlns="http://www.w3.org/2000/svg" xmlns:xlink="http://www.w3.org/1999/xlink" style="background: #FFFFFF;">
    <!-- Generator: Sketch 46.2 (44496) - http://www.bohemiancoding.com/sketch -->
    <title>Artboard 3</title>
    <desc>Created with Sketch.</desc>
    <defs></defs>
    <g id="Page-1" stroke="none" stroke-width="1" fill="none" fill-rule="evenodd">
        <g id="Artboard-3" fill="#F02C80">
            <path d="M76.2432975,187.987484 C36.3600734,181.217271 5.98745299,146.436039 5.98745299,104.546921 C5.98745299,101.069589 6.19675447,97.6412375 6.60342328,94.2738252 C5.97953828,93.3679777 5.33389973,92.4267344 4.6661385,91.4482134 C5.3353007,92.4287874 5.98142314,93.3653486 6.6050166,94.2606404 C7.87077803,83.7932857 11.0435949,73.9149493 15.7649792,64.9848259 C12.673519,61.496272 8.72014635,57.4994665 4,53.227039 C8.95764178,57.7144349 12.9800014,61.3843714 16.0611825,64.4295963 C17.7105458,61.3654212 19.5429736,58.4147673 21.5437891,55.59234 C21.4789265,48.0635036 21.9123053,39.8847123 22.842294,31.0564578 C21.9267821,39.7472858 21.601452,47.7997114 21.8170075,55.2091834 C37.1482306,33.834528 62.1787237,19.9136993 90.4542052,19.9136993 C92.9155205,19.9136993 95.3522476,20.0191816 97.7601293,20.2258807 L100.169756,0 L98.3884315,20.2821716 C104.95273,20.894918 111.29898,22.2603054 117.340382,24.2913631 C120.882718,19.1373188 124.671605,13.3027025 128.70511,6.78871943 C124.748736,13.1781389 121.114137,19.0884177 117.751356,24.4307153 C126.528946,27.4323975 134.655873,31.8415625 141.86408,37.389624 C146.481071,29.3638923 149.217687,20.3149905 150.081007,10.2395801 L150.081007,10.9820418 C149.233121,20.8773233 146.76705,29.886813 142.596768,37.9599752 C159.179042,51.0145405 170.764269,70.153591 174.002126,92.0201992 C178.589583,87.6389194 183.318171,82.8441979 188.187888,77.6360347 C201.730544,62.4092689 202.329398,62.1829415 189.984451,76.9570523 C184.439073,83.593617 179.21578,89.141817 174.260642,93.9131153 C174.564325,96.3404042 174.765416,98.7996605 174.859428,101.286388 C192.939761,104.54716 206.991025,103.983964 217,99.6346305 L216.498839,100.231474 C205.525812,104.612993 192.395545,106.144458 174.912948,103.369312 C174.918282,103.761211 174.920957,104.153753 174.920957,104.546921 C174.920957,151.288559 137.103904,189.180143 90.4542052,189.180143 C89.3988552,189.180143 88.3480256,189.160751 87.3020521,189.122302 C87.0711482,198.214772 86.9024431,208.174005 86.7959366,219 L75.843766,219 C73.1282154,219 74.0431296,204.990804 76.2432975,187.987484 L76.2432975,187.987484 Z M75.5118052,187.864486 C79.1185192,188.478233 82.8031534,188.861922 86.5502226,189 C87.2835374,160.05279 88.6453432,139.885357 90.6356403,128.497702 C90.8164073,127.463428 90.9908202,126.384782 91.158879,125.261765 C116.607658,126.912962 133.669317,124.647195 142.343856,118.464466 C149.321449,113.491225 156.732873,108.370025 164.86638,101.43202 C168.039364,102.144652 171.080482,102.729845 174,103.194421 C173.990539,102.497622 173.9727,101.802856 173.946579,101.11022 C171.657748,100.696417 169.304229,100.221069 166.886051,99.6840988 C168.990273,97.8364084 171.142962,95.8617334 173.348894,93.7324247 C173.269822,93.0988626 173.183782,92.467477 173.090853,91.8383478 C163.212058,101.296332 153.988929,108.828817 145.421464,114.435804 C133.259918,122.394942 115.310433,125.018616 91.5730089,122.306828 C93.0953214,110.707789 94.0223176,94.9515602 94.3539972,75.0381407 C117.703927,66.7857979 133.257885,54.2119679 141.74325,37.7449703 C141.500539,37.553424 141.256756,37.3631868 141.01191,37.1742693 C132.260101,52.424946 116.739342,63.983377 94.4012476,71.8724396 C94.4689994,66.7523053 94.4990622,61.3689828 94.491436,55.7224722 L94.7008572,53.332144 C100.790793,48.9376839 107.877505,38.6455789 116.943529,24.2074133 C116.806947,24.1605915 116.670208,24.114112 116.533311,24.0679757 C107.878592,36.6913944 100.698325,45.2347628 95.0207938,49.6803941 L97.6162139,20.0563254 C97.4073851,20.0367844 97.1983353,20.0180083 96.9890671,20 L92.7436711,55.7224722 C91.9870879,67.4165539 91.2756971,77.7113932 90.6094988,86.6069902 C75.9129156,76.8713317 69.5943772,56.4830264 73.586758,21.8516009 C69.5395792,56.9583652 75.0677247,79.7435934 90.3453683,90.0914017 C89.3993564,102.416316 88.5478619,111.814793 87.7908848,118.286833 L87.7908848,118.12247 C58.7739608,97.9741728 44.8947365,72.5473658 47.7751805,38.8543367 C44.8445667,73.1342098 58.0912333,100.597004 87.4411543,121.120165 C86.9288909,125.031185 86.4635187,127.490365 86.0450378,128.497702 C85.7141112,129.294285 85.1293391,131.648678 84.3869482,135.107809 C82.7350293,133.367957 80.0669221,132.634857 76.0050175,130.3992 C74.3711495,129.499925 64.1069203,124.457526 60.207678,122.34116 C59.6590206,119.410365 59.4089273,116.324735 59.4673607,113.0499 C59.4110333,116.206706 59.6066582,119.276002 60.0538571,122.257382 C59.9874803,122.221098 59.9231881,122.185774 59.8610654,122.151448 C52.5023804,118.085445 46.0636394,113.588009 39.7807308,107.782691 C28.7296643,97.5716641 21.9087015,79.9213987 21.1856061,55.0047569 C21.0943561,55.1322894 21.0034504,55.2600871 20.9128902,55.3881486 C20.9637456,61.3056115 21.3214488,66.8218084 21.9867893,71.936501 C20.8285617,69.9009356 18.6442028,67.4050528 15.4403662,64.2308244 C15.3411486,64.415603 15.2425947,64.6007941 15.1447076,64.7863946 C18.8799998,69.0118355 21.3546715,72.4920888 22.4002853,74.814286 C24.8128088,90.1116896 30.150891,101.592312 38.43766,109.249168 C44.8359132,115.161062 51.3927123,119.743335 58.8679333,123.876879 C54.1197191,125.068244 47.5344355,129.433389 36.6879073,135.788064 C20.4319771,122.031676 13.8656658,105.852109 19.904842,88.1310435 C17.1903466,96.0963271 16.6044939,103.675491 18.1377236,110.855642 C15.8527185,107.440907 11.9561263,102.65008 6.00159039,94.080163 L6,94.0933559 C12.2316331,103.163581 16.2889427,108.687218 18.5411404,112.551272 C20.8257469,121.254258 26.2780141,129.359052 34.88046,136.842081 C34.0540499,137.321663 33.2042142,137.811511 32.3300091,138.311163 C33.2025811,137.812444 34.0584223,137.327688 34.8974991,136.856899 C36.2598319,138.041251 37.7010936,139.210025 39.2212149,140.363127 C42.8373735,143.106195 46.1215099,145.485717 49.5270533,147.830371 C39.2204629,149.610939 28.8548924,150.875401 23.8381247,150.929919 C29.6377325,150.866894 38.5989535,150.108529 50.7317421,148.65491 C54.7681324,151.401538 59.0448963,154.153263 64.2943637,157.440934 C73.4436644,163.171018 76.0958083,164.942186 78.5278606,167.244715 C77.419952,174.13778 76.3683107,181.228985 75.5118052,187.864486 L75.5118052,187.864486 Z M38,135.554865 C49.1291203,129.451204 57.1302191,125.929773 61.9183016,125 C63.3179754,131.591538 66.0133469,137.732898 70,143.419361 C65.4525078,144.675005 59.637349,145.914365 53.6342,147 C49.6234362,144.304573 45.8796586,141.636435 41.6885009,138.482108 C40.4090413,137.519168 39.1791735,136.54331 38,135.554865 L38,135.554865 Z M61.3590891,125 C66.0934991,127.371098 74.0518725,131.14937 75.4383199,131.884729 C80.0252424,134.317588 82.6573044,136.44777 84,139.093541 C83.2338212,142.778266 82.3704968,147.184239 81.4786724,152 C70.8218473,143.811347 63.8200754,135.414465 61,125.058476 C61.121855,125.037294 61.2415519,125.017802 61.3590891,125 L61.3590891,125 Z M54,148.249229 C59.1124967,147.612142 64.7358999,146.862397 70.8708484,146 C73.7047963,149.678195 77.0815794,153.16209 81,156.450388 C80.5764067,158.900979 80.1501789,161.428793 79.7284574,164 C76.7788292,162.225635 72.453116,160.08023 65.7681235,155.867738 C61.2909481,153.046483 57.516894,150.615338 54,148.249229 L54,148.249229 Z" id="Combined-Shape"></path>
        </g>
    </g>
</svg>